<svg xmlns="http://www.w3.org/2000/svg" xmlns:xlink="http://www.w3.org/1999/xlink" version="1.1" viewBox="-17.5 -17.5 35 35"><g transform="translate(-17.5 -17.5) scale(0.3431372549019608)"><g fill="#232323"><circle vector-effect="non-scaling-stroke" cx="51" cy="51" r="50"></circle></g></g><g transform="translate(-12.734957314311202 -13.19060284002654) scale(0.20142742818196732)"><g fill="#FFFFFF"><path d="M113.232 75.297l-3.475-6.019a1 1 0 0 0-.866-.5H81.67l-9.847-17.054 13.61-23.574a1.004 1.004 0 0 0 .134-.5c0-.268 0-.268-3.609-6.518a1 1 0 0 0-.866-.5H46.346a1 1 0 0 0-.866.5l-3.475 6.017a1.002 1.002 0 0 0 0 1l13.61 23.575-9.846 17.054h-27.22a1 1 0 0 0-.867.5l-3.474 6.019a1.002 1.002 0 0 0 0 1l17.373 30.092a1 1 0 0 0 .866.5h6.95a1 1 0 0 0 .866-.5l13.61-23.574h19.693l13.61 23.574a1 1 0 0 0 .866.5h6.95a1 1 0 0 0 .866-.5l17.374-30.092a1.002 1.002 0 0 0 0-1zm-4.919-4.519l2.32 4.019H85.146l-2.32-4.019zm-17.95 17.056l-2.32 4.018-19.694-34.11 2.32-4.018zm1.154-2l-1.742-3.019h3.485zM28.973 74.797a1 1 0 0 0-.867 1.5l6.661 11.537-2.32 4.018-12.166-21.074h46.336l2.32 4.019zm6.949 11.037l-1.743-3.019h3.485zm31.85-51.166h4.64l-19.694 34.11h-4.64zm-4.052 3.018l-1.743-3.018h3.485zm-1.743 31.092l1.743-3.018 1.742 3.018zm-2.31 0h-4.64l19.983-34.61a1 1 0 0 0-.866-1.5H60.822l-2.32-4.019h24.334zM82.836 26.65H56.77a1 1 0 0 0-.866 1.5l3.475 6.019 3.186 5.519-2.32 4.018-12.167-21.073h32.438l2.32 4.017zm-36.489-3.017L59.09 45.705l-2.32 4.018L44.026 27.65zM16.229 75.797l2.32-4.019L31.58 94.352a1 1 0 0 0 1.732 0l3.475-6.018 3.186-5.519h4.64L32.447 103.89zm22.59 29.092h-4.64l12.745-22.074h4.64zm-5.794-24.074l-2.32-4.018H70.09l2.32 4.018zm31.85-17.055l2.32-4.018 19.981 34.61a1 1 0 0 0 1.733 0l6.66-11.537h4.64L88.042 103.89zm29.54 41.129h-4.64l13.033-22.574a1 1 0 0 0-.867-1.5h-13.32L86.3 76.797h24.334z"></path></g></g></svg>