<svg class="jsx-2263963463 artboard" style="width: 60%; height: 60%; top: 18%; left: 20%;"><svg viewBox="-17.5 -17.5 35 35" xmlns="http://www.w3.org/2000/svg" xmlns:xlink="http://www.w3.org/1999/xlink" version="1.1" class="jsx-2263963463 artboard-inner" style="width: 118px; height: 118px; max-height: 100%;"><g transform="translate(-17.5 -17.5) scale(0.3431372549019608)" class="logomark-foreground" id="circle"><g fill="#232323"><circle vector-effect="non-scaling-stroke" cx="51" cy="51" r="50"></circle></g></g><g transform="translate(-9.899955688312444 -9.588282328112614) scale(0.1728009952088567)" class="logomark-background" id="icon"><g fill="#FFFFFF"><path d="M95.108 84.125c-.484 0-.955-.252-1.216-.701L65.849 34.79a1.404 1.404 0 0 1 2.432-1.402l28.043 48.634a1.405 1.405 0 0 1-1.216 2.103z"></path><path d="M76.938 84.125H1.403c-.501 0-.964-.266-1.213-.701a1.4 1.4 0 0 1-.003-1.401L47.011.716a1.406 1.406 0 0 1 1.215-.701h19.23a1.401 1.401 0 1 1 0 2.803H49.037L3.828 81.321h73.11a1.401 1.401 0 0 1 0 2.804z"></path><path d="M76.938 84.125H1.403a1.401 1.401 0 1 1 0-2.803h73.109L56.766 50.554a1.405 1.405 0 0 1 .515-1.916 1.406 1.406 0 0 1 1.917.515l18.956 32.87a1.403 1.403 0 0 1-1.216 2.102zM28.707 100.001H10.76a1.4 1.4 0 1 1 0-2.803h17.946a1.4 1.4 0 0 1 .001 2.803z"></path><path d="M76.938 84.125H1.403a1.402 1.402 0 0 1-1.216-2.102l18.954-32.87a1.404 1.404 0 0 1 2.432 1.401L3.828 81.321h73.11a1.401 1.401 0 0 1 0 2.804z"></path><path d="M104.236 100.001H28.707a1.4 1.4 0 1 1 0-2.803h73.104L84.067 66.434a1.406 1.406 0 0 1 .515-1.917 1.405 1.405 0 0 1 1.916.515l18.954 32.867a1.402 1.402 0 0 1-1.216 2.102z"></path><path d="M76.938 84.125H20.633a1.401 1.401 0 1 1 0-2.803h56.305a1.4 1.4 0 1 1 0 2.803zM67.432 67.644h-37.34c-.501 0-.964-.266-1.213-.701a1.4 1.4 0 0 1-.003-1.401L66.216.703a1.404 1.404 0 1 1 2.432 1.402L32.517 64.84h34.915a1.4 1.4 0 0 1 1.401 1.401 1.4 1.4 0 0 1-1.401 1.403z"></path><path d="M67.432 67.644H48.544c-.501 0-.964-.266-1.213-.701a1.4 1.4 0 0 1-.003-1.401l18.519-32.155a1.403 1.403 0 1 1 2.431 1.402L50.97 64.84h16.462a1.4 1.4 0 0 1 1.401 1.401 1.4 1.4 0 0 1-1.401 1.403zM10.76 100.001c-.479 0-.947-.246-1.208-.69L.195 83.435a1.402 1.402 0 0 1 2.415-1.424l9.358 15.877a1.4 1.4 0 0 1-1.208 2.113z"></path><path d="M104.236 100.001a1.404 1.404 0 0 1-1.183-2.155l9.645-15.159L67.457 4.223 31.332 66.956a1.41 1.41 0 0 1-1.917.515 1.403 1.403 0 0 1-.515-1.916L66.24.716c.504-.865 1.928-.865 2.432 0l46.881 81.307a1.405 1.405 0 0 1-.032 1.453l-10.103 15.876a1.4 1.4 0 0 1-1.182.649z"></path></g></g></svg></svg>